<?xml version="1.0" encoding="utf-8"?>
<svg version="1.1" xmlns:xlink="http://www.w3.org/1999/xlink" width="325px" height="136px" xmlns="http://www.w3.org/2000/svg">
  <g transform="matrix(1 0 0 1 -1099 -490 )">
    <path d="M 1100 494  A 3 3 0 0 1 1103 491 L 1420 491  A 3 3 0 0 1 1423 494 L 1423 622  A 3 3 0 0 1 1420 625 L 1103 625  A 3 3 0 0 1 1100 622 L 1100 494  Z " fill-rule="nonzero" fill="#ff3399" stroke="none" fill-opacity="0.0980392156862745" />
    <path d="M 1099.5 494  A 3.5 3.5 0 0 1 1103 490.5 L 1420 490.5  A 3.5 3.5 0 0 1 1423.5 494 L 1423.5 622  A 3.5 3.5 0 0 1 1420 625.5 L 1103 625.5  A 3.5 3.5 0 0 1 1099.5 622 L 1099.5 494  Z " stroke-width="1" stroke-dasharray="9,4" stroke="#ff3399" fill="none" stroke-dashoffset="0.5" />
  </g>
</svg>