<?xml version="1.0" encoding="utf-8"?>
<svg version="1.1" xmlns:xlink="http://www.w3.org/1999/xlink" width="325px" height="136px" xmlns="http://www.w3.org/2000/svg">
  <g transform="matrix(1 0 0 1 -252 -505 )">
    <path d="M 253 509  A 3 3 0 0 1 256 506 L 573 506  A 3 3 0 0 1 576 509 L 576 637  A 3 3 0 0 1 573 640 L 256 640  A 3 3 0 0 1 253 637 L 253 509  Z " fill-rule="nonzero" fill="#ff3399" stroke="none" fill-opacity="0.0980392156862745" />
    <path d="M 252.5 509  A 3.5 3.5 0 0 1 256 505.5 L 573 505.5  A 3.5 3.5 0 0 1 576.5 509 L 576.5 637  A 3.5 3.5 0 0 1 573 640.5 L 256 640.5  A 3.5 3.5 0 0 1 252.5 637 L 252.5 509  Z " stroke-width="1" stroke-dasharray="9,4" stroke="#ff3399" fill="none" stroke-dashoffset="0.5" />
  </g>
</svg>