<?xml version="1.0" encoding="utf-8"?>
<svg version="1.1" xmlns:xlink="http://www.w3.org/1999/xlink" width="12px" height="12px" viewBox="1394 1240  12 12" xmlns="http://www.w3.org/2000/svg">
  <path d="M 1400 1240  C 1403.36 1240  1406 1242.64  1406 1246  C 1406 1249.36  1403.36 1252  1400 1252  C 1396.64 1252  1394 1249.36  1394 1246  C 1394 1242.64  1396.64 1240  1400 1240  Z " fill-rule="nonzero" fill="#ffffff" stroke="none" />
  <path d="M 1400 1240.5  C 1403.08 1240.5  1405.5 1242.92  1405.5 1246  C 1405.5 1249.08  1403.08 1251.5  1400 1251.5  C 1396.92 1251.5  1394.5 1249.08  1394.5 1246  C 1394.5 1242.92  1396.92 1240.5  1400 1240.5  Z " stroke-width="1" stroke="#797979" fill="none" />
  <path d="M 1400 1249  C 1398.32 1249  1397 1247.68  1397 1246  C 1397 1244.32  1398.32 1243  1400 1243  C 1401.68 1243  1403 1244.32  1403 1246  C 1403 1247.68  1401.68 1249  1400 1249  " fill-rule="nonzero" fill="#797979" stroke="none" />
</svg>