<?xml version="1.0" encoding="utf-8"?>
<svg version="1.1" xmlns:xlink="http://www.w3.org/1999/xlink" width="325px" height="36px" xmlns="http://www.w3.org/2000/svg">
  <g transform="matrix(1 0 0 1 -1075 -469 )">
    <path d="M 1076 473  A 3 3 0 0 1 1079 470 L 1396 470  A 3 3 0 0 1 1399 473 L 1399 501  A 3 3 0 0 1 1396 504 L 1079 504  A 3 3 0 0 1 1076 501 L 1076 473  Z " fill-rule="nonzero" fill="#ff3399" stroke="none" fill-opacity="0.0980392156862745" />
    <path d="M 1075.5 473  A 3.5 3.5 0 0 1 1079 469.5 L 1396 469.5  A 3.5 3.5 0 0 1 1399.5 473 L 1399.5 501  A 3.5 3.5 0 0 1 1396 504.5 L 1079 504.5  A 3.5 3.5 0 0 1 1075.5 501 L 1075.5 473  Z " stroke-width="1" stroke-dasharray="9,4" stroke="#ff3399" fill="none" stroke-dashoffset="0.5" />
  </g>
</svg>