<?xml version="1.0" encoding="utf-8"?>
<svg version="1.1" xmlns:xlink="http://www.w3.org/1999/xlink" width="591px" height="136px" xmlns="http://www.w3.org/2000/svg">
  <g transform="matrix(1 0 0 1 -353 -968 )">
    <path d="M 354 972  A 3 3 0 0 1 357 969 L 940 969  A 3 3 0 0 1 943 972 L 943 1100  A 3 3 0 0 1 940 1103 L 357 1103  A 3 3 0 0 1 354 1100 L 354 972  Z " fill-rule="nonzero" fill="#ff3399" stroke="none" fill-opacity="0.0980392156862745" />
    <path d="M 353.5 972  A 3.5 3.5 0 0 1 357 968.5 L 940 968.5  A 3.5 3.5 0 0 1 943.5 972 L 943.5 1100  A 3.5 3.5 0 0 1 940 1103.5 L 357 1103.5  A 3.5 3.5 0 0 1 353.5 1100 L 353.5 972  Z " stroke-width="1" stroke-dasharray="9,4" stroke="#ff3399" fill="none" stroke-dashoffset="0.5" />
  </g>
</svg>