<?xml version="1.0" encoding="utf-8"?>
<svg version="1.1" xmlns:xlink="http://www.w3.org/1999/xlink" width="12px" height="12px" viewBox="1474 1240  12 12" xmlns="http://www.w3.org/2000/svg">
  <path d="M 1480 1240  C 1483.36 1240  1486 1242.64  1486 1246  C 1486 1249.36  1483.36 1252  1480 1252  C 1476.64 1252  1474 1249.36  1474 1246  C 1474 1242.64  1476.64 1240  1480 1240  Z " fill-rule="nonzero" fill="#f0f0f0" stroke="none" />
  <path d="M 1480 1240.5  C 1483.08 1240.5  1485.5 1242.92  1485.5 1246  C 1485.5 1249.08  1483.08 1251.5  1480 1251.5  C 1476.92 1251.5  1474.5 1249.08  1474.5 1246  C 1474.5 1242.92  1476.92 1240.5  1480 1240.5  Z " stroke-width="1" stroke="#797979" fill="none" />
  <path d="M 1480 1249  C 1478.32 1249  1477 1247.68  1477 1246  C 1477 1244.32  1478.32 1243  1480 1243  C 1481.68 1243  1483 1244.32  1483 1246  C 1483 1247.68  1481.68 1249  1480 1249  " fill-rule="nonzero" fill="#797979" stroke="none" />
</svg>