<?xml version="1.0" encoding="utf-8"?>
<svg version="1.1" xmlns:xlink="http://www.w3.org/1999/xlink" width="12px" height="12px" viewBox="151 2147  12 12" xmlns="http://www.w3.org/2000/svg">
  <path d="M 157 2147  C 160.36 2147  163 2149.64  163 2153  C 163 2156.36  160.36 2159  157 2159  C 153.64 2159  151 2156.36  151 2153  C 151 2149.64  153.64 2147  157 2147  Z " fill-rule="nonzero" fill="#ffffff" stroke="none" />
  <path d="M 157 2147.5  C 160.08 2147.5  162.5 2149.92  162.5 2153  C 162.5 2156.08  160.08 2158.5  157 2158.5  C 153.92 2158.5  151.5 2156.08  151.5 2153  C 151.5 2149.92  153.92 2147.5  157 2147.5  Z " stroke-width="1" stroke="#797979" fill="none" />
  <path d="M 157 2156  C 155.32 2156  154 2154.68  154 2153  C 154 2151.32  155.32 2150  157 2150  C 158.68 2150  160 2151.32  160 2153  C 160 2154.68  158.68 2156  157 2156  " fill-rule="nonzero" fill="#797979" stroke="none" />
</svg>