<?xml version="1.0" encoding="utf-8"?>
<svg version="1.1" xmlns:xlink="http://www.w3.org/1999/xlink" width="717px" height="796px" xmlns="http://www.w3.org/2000/svg">
  <g transform="matrix(1 0 0 1 -656 -2382 )">
    <path d="M 657 2386  A 3 3 0 0 1 660 2383 L 1369 2383  A 3 3 0 0 1 1372 2386 L 1372 3174  A 3 3 0 0 1 1369 3177 L 660 3177  A 3 3 0 0 1 657 3174 L 657 2386  Z " fill-rule="nonzero" fill="#ff3399" stroke="none" fill-opacity="0.0980392156862745" />
    <path d="M 656.5 2386  A 3.5 3.5 0 0 1 660 2382.5 L 1369 2382.5  A 3.5 3.5 0 0 1 1372.5 2386 L 1372.5 3174  A 3.5 3.5 0 0 1 1369 3177.5 L 660 3177.5  A 3.5 3.5 0 0 1 656.5 3174 L 656.5 2386  Z " stroke-width="1" stroke-dasharray="9,4" stroke="#ff3399" fill="none" stroke-dashoffset="0.5" />
  </g>
</svg>