<?xml version="1.0" encoding="utf-8"?>
<svg version="1.1" xmlns:xlink="http://www.w3.org/1999/xlink" width="437px" height="124px" xmlns="http://www.w3.org/2000/svg">
  <g transform="matrix(1 0 0 1 -482 -1304 )">
    <path d="M 483 1308  A 3 3 0 0 1 486 1305 L 915 1305  A 3 3 0 0 1 918 1308 L 918 1424  A 3 3 0 0 1 915 1427 L 486 1427  A 3 3 0 0 1 483 1424 L 483 1308  Z " fill-rule="nonzero" fill="#ff3399" stroke="none" fill-opacity="0.0980392156862745" />
    <path d="M 482.5 1308  A 3.5 3.5 0 0 1 486 1304.5 L 915 1304.5  A 3.5 3.5 0 0 1 918.5 1308 L 918.5 1424  A 3.5 3.5 0 0 1 915 1427.5 L 486 1427.5  A 3.5 3.5 0 0 1 482.5 1424 L 482.5 1308  Z " stroke-width="1" stroke-dasharray="9,4" stroke="#ff3399" fill="none" stroke-dashoffset="0.5" />
  </g>
</svg>