<?xml version="1.0" encoding="utf-8"?>
<svg version="1.1" xmlns:xlink="http://www.w3.org/1999/xlink" width="12px" height="12px" viewBox="303 2147  12 12" xmlns="http://www.w3.org/2000/svg">
  <path d="M 309 2147  C 312.36 2147  315 2149.64  315 2153  C 315 2156.36  312.36 2159  309 2159  C 305.64 2159  303 2156.36  303 2153  C 303 2149.64  305.64 2147  309 2147  Z " fill-rule="nonzero" fill="#f0f0f0" stroke="none" />
  <path d="M 309 2147.5  C 312.08 2147.5  314.5 2149.92  314.5 2153  C 314.5 2156.08  312.08 2158.5  309 2158.5  C 305.92 2158.5  303.5 2156.08  303.5 2153  C 303.5 2149.92  305.92 2147.5  309 2147.5  Z " stroke-width="1" stroke="#797979" fill="none" />
  <path d="M 309 2156  C 307.32 2156  306 2154.68  306 2153  C 306 2151.32  307.32 2150  309 2150  C 310.68 2150  312 2151.32  312 2153  C 312 2154.68  310.68 2156  309 2156  " fill-rule="nonzero" fill="#797979" stroke="none" />
</svg>