<?xml version="1.0" encoding="utf-8"?>
<svg version="1.1" xmlns:xlink="http://www.w3.org/1999/xlink" width="1075px" height="36px" xmlns="http://www.w3.org/2000/svg">
  <g transform="matrix(1 0 0 1 -149 -1210 )">
    <path d="M 150 1214  A 3 3 0 0 1 153 1211 L 1220 1211  A 3 3 0 0 1 1223 1214 L 1223 1242  A 3 3 0 0 1 1220 1245 L 153 1245  A 3 3 0 0 1 150 1242 L 150 1214  Z " fill-rule="nonzero" fill="#ff3399" stroke="none" fill-opacity="0.0980392156862745" />
    <path d="M 149.5 1214  A 3.5 3.5 0 0 1 153 1210.5 L 1220 1210.5  A 3.5 3.5 0 0 1 1223.5 1214 L 1223.5 1242  A 3.5 3.5 0 0 1 1220 1245.5 L 153 1245.5  A 3.5 3.5 0 0 1 149.5 1242 L 149.5 1214  Z " stroke-width="1" stroke-dasharray="9,4" stroke="#ff3399" fill="none" stroke-dashoffset="0.5" />
  </g>
</svg>