<?xml version="1.0" encoding="utf-8"?>
<svg version="1.1" xmlns:xlink="http://www.w3.org/1999/xlink" width="444px" height="268px" xmlns="http://www.w3.org/2000/svg">
  <g transform="matrix(1 0 0 1 -1310 -2052 )">
    <path d="M 1311 2056  A 3 3 0 0 1 1314 2053 L 1750 2053  A 3 3 0 0 1 1753 2056 L 1753 2316  A 3 3 0 0 1 1750 2319 L 1314 2319  A 3 3 0 0 1 1311 2316 L 1311 2056  Z " fill-rule="nonzero" fill="#ff3399" stroke="none" fill-opacity="0.0980392156862745" />
    <path d="M 1310.5 2056  A 3.5 3.5 0 0 1 1314 2052.5 L 1750 2052.5  A 3.5 3.5 0 0 1 1753.5 2056 L 1753.5 2316  A 3.5 3.5 0 0 1 1750 2319.5 L 1314 2319.5  A 3.5 3.5 0 0 1 1310.5 2316 L 1310.5 2056  Z " stroke-width="1" stroke-dasharray="9,4" stroke="#ff3399" fill="none" stroke-dashoffset="0.5" />
  </g>
</svg>