<?xml version="1.0" encoding="utf-8"?>
<svg version="1.1" xmlns:xlink="http://www.w3.org/1999/xlink" width="385px" height="113px" xmlns="http://www.w3.org/2000/svg">
  <g transform="matrix(1 0 0 1 -1650 -1185 )">
    <path d="M 1651 1189  A 3 3 0 0 1 1654 1186 L 2031 1186  A 3 3 0 0 1 2034 1189 L 2034 1294  A 3 3 0 0 1 2031 1297 L 1654 1297  A 3 3 0 0 1 1651 1294 L 1651 1189  Z " fill-rule="nonzero" fill="#ff3399" stroke="none" fill-opacity="0.0980392156862745" />
    <path d="M 1650.5 1189  A 3.5 3.5 0 0 1 1654 1185.5 L 2031 1185.5  A 3.5 3.5 0 0 1 2034.5 1189 L 2034.5 1294  A 3.5 3.5 0 0 1 2031 1297.5 L 1654 1297.5  A 3.5 3.5 0 0 1 1650.5 1294 L 1650.5 1189  Z " stroke-width="1" stroke-dasharray="9,4" stroke="#ff3399" fill="none" stroke-dashoffset="0.5" />
  </g>
</svg>