<?xml version="1.0" encoding="utf-8"?>
<svg version="1.1" xmlns:xlink="http://www.w3.org/1999/xlink" width="12px" height="12px" viewBox="914 2145  12 12" xmlns="http://www.w3.org/2000/svg">
  <path d="M 920 2145  C 923.36 2145  926 2147.64  926 2151  C 926 2154.36  923.36 2157  920 2157  C 916.64 2157  914 2154.36  914 2151  C 914 2147.64  916.64 2145  920 2145  Z " fill-rule="nonzero" fill="#ffffff" stroke="none" />
  <path d="M 920 2145.5  C 923.08 2145.5  925.5 2147.92  925.5 2151  C 925.5 2154.08  923.08 2156.5  920 2156.5  C 916.92 2156.5  914.5 2154.08  914.5 2151  C 914.5 2147.92  916.92 2145.5  920 2145.5  Z " stroke-width="1" stroke="#797979" fill="none" />
  <path d="M 920 2154  C 918.32 2154  917 2152.68  917 2151  C 917 2149.32  918.32 2148  920 2148  C 921.68 2148  923 2149.32  923 2151  C 923 2152.68  921.68 2154  920 2154  " fill-rule="nonzero" fill="#797979" stroke="none" />
</svg>