<?xml version="1.0" encoding="utf-8"?>
<svg version="1.1" xmlns:xlink="http://www.w3.org/1999/xlink" width="711px" height="36px" xmlns="http://www.w3.org/2000/svg">
  <g transform="matrix(1 0 0 1 -62 -181 )">
    <path d="M 63 185  A 3 3 0 0 1 66 182 L 769 182  A 3 3 0 0 1 772 185 L 772 213  A 3 3 0 0 1 769 216 L 66 216  A 3 3 0 0 1 63 213 L 63 185  Z " fill-rule="nonzero" fill="#ff3399" stroke="none" fill-opacity="0.0980392156862745" />
    <path d="M 62.5 185  A 3.5 3.5 0 0 1 66 181.5 L 769 181.5  A 3.5 3.5 0 0 1 772.5 185 L 772.5 213  A 3.5 3.5 0 0 1 769 216.5 L 66 216.5  A 3.5 3.5 0 0 1 62.5 213 L 62.5 185  Z " stroke-width="1" stroke-dasharray="9,4" stroke="#ff3399" fill="none" stroke-dashoffset="0.5" />
  </g>
</svg>