<?xml version="1.0" encoding="utf-8"?>
<svg version="1.1" xmlns:xlink="http://www.w3.org/1999/xlink" width="385px" height="316px" xmlns="http://www.w3.org/2000/svg">
  <g transform="matrix(1 0 0 1 -2131 -809 )">
    <path d="M 2132 813  A 3 3 0 0 1 2135 810 L 2512 810  A 3 3 0 0 1 2515 813 L 2515 1121  A 3 3 0 0 1 2512 1124 L 2135 1124  A 3 3 0 0 1 2132 1121 L 2132 813  Z " fill-rule="nonzero" fill="#ff3399" stroke="none" fill-opacity="0.0980392156862745" />
    <path d="M 2131.5 813  A 3.5 3.5 0 0 1 2135 809.5 L 2512 809.5  A 3.5 3.5 0 0 1 2515.5 813 L 2515.5 1121  A 3.5 3.5 0 0 1 2512 1124.5 L 2135 1124.5  A 3.5 3.5 0 0 1 2131.5 1121 L 2131.5 813  Z " stroke-width="1" stroke-dasharray="9,4" stroke="#ff3399" fill="none" stroke-dashoffset="0.5" />
  </g>
</svg>