<?xml version="1.0" encoding="utf-8"?>
<svg version="1.1" xmlns:xlink="http://www.w3.org/1999/xlink" width="12px" height="12px" viewBox="346 353  12 12" xmlns="http://www.w3.org/2000/svg">
  <path d="M 352 353  C 355.36 353  358 355.64  358 359  C 358 362.36  355.36 365  352 365  C 348.64 365  346 362.36  346 359  C 346 355.64  348.64 353  352 353  Z " fill-rule="nonzero" fill="#f0f0f0" stroke="none" />
  <path d="M 352 353.5  C 355.08 353.5  357.5 355.92  357.5 359  C 357.5 362.08  355.08 364.5  352 364.5  C 348.92 364.5  346.5 362.08  346.5 359  C 346.5 355.92  348.92 353.5  352 353.5  Z " stroke-width="1" stroke="#797979" fill="none" />
  <path d="M 352 362  C 350.32 362  349 360.68  349 359  C 349 357.32  350.32 356  352 356  C 353.68 356  355 357.32  355 359  C 355 360.68  353.68 362  352 362  " fill-rule="nonzero" fill="#797979" stroke="none" />
</svg>