<?xml version="1.0" encoding="utf-8"?>
<svg version="1.1" xmlns:xlink="http://www.w3.org/1999/xlink" width="635px" height="256px" xmlns="http://www.w3.org/2000/svg">
  <g transform="matrix(1 0 0 1 -51 -615 )">
    <path d="M 52 619  A 3 3 0 0 1 55 616 L 682 616  A 3 3 0 0 1 685 619 L 685 867  A 3 3 0 0 1 682 870 L 55 870  A 3 3 0 0 1 52 867 L 52 619  Z " fill-rule="nonzero" fill="#ff3399" stroke="none" fill-opacity="0.0980392156862745" />
    <path d="M 51.5 619  A 3.5 3.5 0 0 1 55 615.5 L 682 615.5  A 3.5 3.5 0 0 1 685.5 619 L 685.5 867  A 3.5 3.5 0 0 1 682 870.5 L 55 870.5  A 3.5 3.5 0 0 1 51.5 867 L 51.5 619  Z " stroke-width="1" stroke-dasharray="9,4" stroke="#ff3399" fill="none" stroke-dashoffset="0.5" />
  </g>
</svg>