<?xml version="1.0" encoding="utf-8"?>
<svg version="1.1" xmlns:xlink="http://www.w3.org/1999/xlink" width="375px" height="60px" xmlns="http://www.w3.org/2000/svg">
  <g transform="matrix(1 0 0 1 -888 -620 )">
    <path d="M 889 624  A 3 3 0 0 1 892 621 L 1259 621  A 3 3 0 0 1 1262 624 L 1262 676  A 3 3 0 0 1 1259 679 L 892 679  A 3 3 0 0 1 889 676 L 889 624  Z " fill-rule="nonzero" fill="#ff3399" stroke="none" fill-opacity="0.0980392156862745" />
    <path d="M 888.5 624  A 3.5 3.5 0 0 1 892 620.5 L 1259 620.5  A 3.5 3.5 0 0 1 1262.5 624 L 1262.5 676  A 3.5 3.5 0 0 1 1259 679.5 L 892 679.5  A 3.5 3.5 0 0 1 888.5 676 L 888.5 624  Z " stroke-width="1" stroke-dasharray="9,4" stroke="#ff3399" fill="none" stroke-dashoffset="0.5" />
  </g>
</svg>