<?xml version="1.0" encoding="utf-8"?>
<svg version="1.1" xmlns:xlink="http://www.w3.org/1999/xlink" width="872px" height="324px" xmlns="http://www.w3.org/2000/svg">
  <g transform="matrix(1 0 0 1 -25 -1704 )">
    <path d="M 26 1708  A 3 3 0 0 1 29 1705 L 893 1705  A 3 3 0 0 1 896 1708 L 896 2024  A 3 3 0 0 1 893 2027 L 29 2027  A 3 3 0 0 1 26 2024 L 26 1708  Z " fill-rule="nonzero" fill="#ff3399" stroke="none" fill-opacity="0.0980392156862745" />
    <path d="M 25.5 1708  A 3.5 3.5 0 0 1 29 1704.5 L 893 1704.5  A 3.5 3.5 0 0 1 896.5 1708 L 896.5 2024  A 3.5 3.5 0 0 1 893 2027.5 L 29 2027.5  A 3.5 3.5 0 0 1 25.5 2024 L 25.5 1708  Z " stroke-width="1" stroke-dasharray="9,4" stroke="#ff3399" fill="none" stroke-dashoffset="0.5" />
  </g>
</svg>