<?xml version="1.0" encoding="utf-8"?>
<svg version="1.1" xmlns:xlink="http://www.w3.org/1999/xlink" width="872px" height="324px" xmlns="http://www.w3.org/2000/svg">
  <g transform="matrix(1 0 0 1 -25 -1935 )">
    <path d="M 26 1939  A 3 3 0 0 1 29 1936 L 893 1936  A 3 3 0 0 1 896 1939 L 896 2255  A 3 3 0 0 1 893 2258 L 29 2258  A 3 3 0 0 1 26 2255 L 26 1939  Z " fill-rule="nonzero" fill="#ff3399" stroke="none" fill-opacity="0.0980392156862745" />
    <path d="M 25.5 1939  A 3.5 3.5 0 0 1 29 1935.5 L 893 1935.5  A 3.5 3.5 0 0 1 896.5 1939 L 896.5 2255  A 3.5 3.5 0 0 1 893 2258.5 L 29 2258.5  A 3.5 3.5 0 0 1 25.5 2255 L 25.5 1939  Z " stroke-width="1" stroke-dasharray="9,4" stroke="#ff3399" fill="none" stroke-dashoffset="0.5" />
  </g>
</svg>