<?xml version="1.0" encoding="utf-8"?>
<svg version="1.1" xmlns:xlink="http://www.w3.org/1999/xlink" width="1071px" height="76px" xmlns="http://www.w3.org/2000/svg">
  <g transform="matrix(1 0 0 1 -41 -2681 )">
    <path d="M 42 2685  A 3 3 0 0 1 45 2682 L 1108 2682  A 3 3 0 0 1 1111 2685 L 1111 2753  A 3 3 0 0 1 1108 2756 L 45 2756  A 3 3 0 0 1 42 2753 L 42 2685  Z " fill-rule="nonzero" fill="#ff3399" stroke="none" fill-opacity="0.0980392156862745" />
    <path d="M 41.5 2685  A 3.5 3.5 0 0 1 45 2681.5 L 1108 2681.5  A 3.5 3.5 0 0 1 1111.5 2685 L 1111.5 2753  A 3.5 3.5 0 0 1 1108 2756.5 L 45 2756.5  A 3.5 3.5 0 0 1 41.5 2753 L 41.5 2685  Z " stroke-width="1" stroke-dasharray="9,4" stroke="#ff3399" fill="none" stroke-dashoffset="0.5" />
  </g>
</svg>